<?xml version="1.0" encoding="UTF-8"?>
<svg id="Layer_1" data-name="Layer 1" xmlns="http://www.w3.org/2000/svg" viewBox="0 0 1080 1080">
  <defs>
    <style>
      .cls-1 {
        fill: #fff;
        stroke-width: 0px;
      }
    </style>
  </defs>
  <path class="cls-1" d="m243.4,489.41l-20.51,61.25h-57.89l62.52-157.81h167.31l-5.92,32.19h-123.94l-9.32,27.84h121.9l-6.99,36.53h-127.16Zm207.78,62.28v.02c-.06.2-.12.41-.17.61,12.27.75,29.33,1.13,51.17,1.13,30.61,0,52.6-.75,65.95-2.23,13.3-1.48,23.47-4.33,30.51-8.54,12.24-7.22,18.78-18.36,19.76-33.16.5-8.47-.13-25.9-1.8-51.26l-5.87-65.41h-48.23l1.86,65.41c.12,4.47.08,10.25-.14,17.41-.24,7.12-.72,12.21-1.47,15.2-.75,3.01-2.11,5.59-4.08,7.74-3.01,3.07-8.2,5.13-15.56,6.17-7.38,1.05-20.62,1.57-39.72,1.57s-32.18-.66-40.78-1.96c-.73,4.1-1.75,8.86-3.15,14.75-1.8,7.63-4.28,17.35-8.28,32.52v.02Zm-10.76-39.01c.13-.52.25-1.04.38-1.56,2.42-10.09,3.38-16.7,3.71-20.9-.08-.65-.13-1.41-.16-2.3-2.06,1.18-5.1,3.17-9.47,6.46-2.3,1.73-4.88,3.77-7.65,6.03-11.31,9.25-22.31,19.52-34.21,32.03,4.83,7.43,12.89,12.57,24.21,15.33,4.11.98,8.58,1.82,13.42,2.52,3.7-13.45,6.89-25.75,9.76-37.61Zm-52.02-18.38c-.47,4.13-.74,8.66-.81,13.62,14.07-14.28,26.2-24.94,36.24-31.84,8.48-5.82,15.55-9,21.52-9.66.21-2.54.45-5.26.72-8.15l7.19-65.41h-48.23l-11.2,65.41c-2.99,18.47-4.83,30.66-5.44,36.03Zm321.08,56.37l-23.1-122.9h5.45l122.56,122.9h100.6l-62.51-157.81h-49.05l38.73,112h-5.7l-119.76-112h-84.53l18.44,157.81h58.86Zm-293.09,129.65c.31,2.47.31,4.96,0,5.57-.43.86-1.7,1.26-3.07,1.26-1.62,0-3.38-.56-4.05-1.56-2.48-3.71-.93-16.42,6.19-49.24,3.1-15.17,7.13-31.9,9.92-41.19l.62-2.17-9.29.62c-25.09,1.55-47.7,3.4-66.9,5.26-11.77,1.24-21.69,2.17-22.3,2.17-1.86,0-38.1,55.14-41.81,63.8-1.55,4.03-2.47,4.96-4.64,4.96s-2.79-.62-3.1-2.79c-.31-3.1,13-26.01,29.42-50.17,4.95-7.1,8.79-13.63,8.37-13.63-11.4.78-24.1,3.01-35.31,5.39-11.21,2.39-20.93,4.93-26.35,6.32-5.58,1.24-8.67,2.17-10.84,2.17s-2.79-.93-2.79-2.47c0-3.41,38.11-12.94,65.68-16.66l14.87-1.86,4.34-5.57c8.55-11.24,35.27-44.73,62.56-73.08,13.9-14.45,27.95-27.56,39.81-35.71,6.49-4.46,12.32-7.43,17.12-8.32.99-.18,1.95-.28,2.85-.28,6.51,0,9.6,5.26,9.6,15.8,0,4.1-.33,8.21-1.35,14.05-.69,3.91-1.69,8.61-3.11,14.62-1.9,8.03-4.56,18.4-8.24,32.35-.17.63-.34,1.26-.51,1.88-5.03,18.68-9.09,34.07-9.09,34.36,0,.31,4.34.62,9.6.62h1.24c7.55,0,11.88.4,13.77,1.48-1.39,1.31-2.71,2.66-3.93,4.04-1.91.05-4.56.05-8.29.05h-12.7l-3.72,13.62c-9.29,34.69-15.49,66.9-14.56,74.33Zm11.46-93.23l2.17-8.05-.31-.31c2.66-9.18,5.27-18.36,7.79-27.58,3.36-12.22,6.56-24.48,9.56-36.85.14-.54.27-1.07.39-1.6,1.1-4.57,1.98-8.79,2.63-12.57,2.11-12.15,1.91-19.9-.85-20.82h-.93c-.11-.01-.21-.02-.32-.02-.92,0-2.1.3-3.53.91-3.24,1.36-7.78,4.27-13.68,8.71-2.4,1.81-5.01,3.87-7.86,6.19-11.01,9-21.75,19-33.09,30.81-9.72,10.11-19.87,21.56-31.02,34.85-8.05,9.6-26.64,33.14-26.64,33.76,0,.22-.04.37.79.37,1.43,0,5.48-.43,16.87-1.61,13.31-1.55,55.44-4.96,73.71-5.88l4.34-.31Zm422.76,3.1c.31.93-4.96,4.34-18.28,11.46-27.87,15.17-26.33,13.63-28.49,19.51-7.74,20.75-29.73,48.94-52.03,54.2-3.09.72-4.58,1.02-6.03,1.02-1.02,0-2.04-.15-3.58-.4-7.12-1.55-9.29-8.06-4.95-15.49,4.33-7.43,25.39-24.15,50.48-39.95,5.88-3.72,10.84-6.81,11.15-7.12.62-.62,4.34-16.11,4.34-18.58,0-1.24-.31-2.47-.94-2.47s-6.19,4.64-12.39,10.22c-17.03,15.49-19.21,17.03-25.09,17.65-.94.07-1.71.1-2.37.1-2.4,0-3.23-.5-4.44-1.96-2.34-2.73-2.11-8.9.09-15.58-8.89,5.81-19.74,11.79-28.9,15.88-7.77,3.37-18.16,5.87-23.88,5.87-1.11,0-2.05-.09-2.76-.3-.62-.31-2.47-.62-4.03-.93-8.05-1.55-13.01-8.67-10.84-16.42.27-.99.58-1.96.94-2.91-8.19,5.69-17.68,11.41-24.78,14.37-5.02,2.23-9.28,3.33-12.8,3.33-4.29,0-7.46-1.65-9.5-4.88-2.17-3.4-1.55-7.12,2.48-17.65,1.55-4.02,2.47-7.43,2.17-7.74-.09-.08-.25-.11-.45-.11-2.98,0-16.8,8.31-24.64,14.98-8.36,7.12-19.82,14.87-21.99,14.87-1.24,0-3.1-.62-4.03-1.55-1.24-.93-1.55-2.48-1.24-4.64.38-2.08,1.78-5.42,3.65-9.09-17.18,12.67-30.17,18.46-41.42,18.46-1.69,0-3.34-.13-4.97-.38-10.53-1.86-16.1-7.44-15.17-15.18.5-4.32,2.91-8.78,6.23-12.59-2.17,1.03-4.81,2.24-7.79,3.61-20.44,8.98-26.33,12.39-28.18,15.18-.94,1.24-4.96,7.12-8.98,13.31-9.92,15.17-21.06,27.88-32.21,36.86-10.32,8.3-20.32,12.86-27.17,12.86-2.6,0-4.75-.66-6.28-2.02-7.13-6.2,3.71-21.37,28.18-39.03,11.15-8.05,27.26-18.58,35.62-23.54,4.03-2.48,4.96-3.72,8.06-11.77,1.85-4.96,3.1-9.29,2.79-9.6-.28-.23-.62-.35-1.07-.35-2.57,0-8.34,4.03-21.54,14.6-14.71,12.02-20.41,15.75-25.08,15.75-.75,0-1.46-.09-2.18-.26-7.5-1.5-5.52-12.47,2.68-22.83,1.97-2.49,4.29-4.94,6.93-7.22.58-.52,1.12-.99,1.62-1.43,4.55-3.95,5.97-4.48,10.15-4.77,1-.07,1.84-.1,2.57-.1,2.66,0,3.85.5,5.79,1.96,1.55,1.24,3.1,2.79,3.41,3.72.21.44.47.68.95.68.89,0,2.55-.84,6.17-2.85,4.23-2.29,7.15-3.37,9.51-3.37,1.79,0,3.26.62,4.73,1.82,2.17,1.55,2.48,2.48,1.86,7.44-.31,3.1-.93,6.51-1.24,7.74-.24.7-.2,1.1.36,1.1.92,0,3.3-1.07,8.31-3.58,8.67-4.33,13.62-6.19,21.06-8.98,4.01-1.43,7.22-2.33,8.66-2.46.03,0,.06,0,.09,0,.08-.01.16-.01.23-.01h.32l.06-.12-.38-.19.38.19h.02s0,.01,0,.01h.01s0,0,0,0h0s.09.05.09.05l.09.04.04.02h-.03c.12.07.23.15.32.24,1.38-.77,2.78-1.4,4.16-1.86,1.67-.56,3.3-.86,4.84-.86.47,0,.95.05,1.42.14.76.15,1.53.41,2.3.79.79.37,1.46.82,2,1.32,1.92,1.79,2.23,4.32.86,7.06-.79,1.6-2.15,3.29-4.09,4.94-3.4,3.1-7.12,3.72-10.84,4.03-1.08.05-1.98.07-2.75.07-1.19,0-2.05-.04-2.69-.04-1.36,0-1.78.17-2.3,1.21-.62,1.24-.93,3.72-.62,5.57.31,4.96,4.34,7.44,12.08,7.44,10.84,0,24.78-7.12,45.83-23.53l.31.31c1.4-1.05,2.64-1.94,3.74-2.69,2.45-3.52,4.74-6.19,6.16-6.91.52-.26.98-.41,1.43-.41.64,0,1.26.3,1.98,1.03,1.86,1.55,1.86,1.85-.93,5.57-4.03,5.58-11.46,17.97-12.39,20.75-.13.31-.09.48.13.48.85,0,4.42-2.49,11.33-7.92,16.07-12.41,26.59-18.33,32.92-18.33,1.72,0,3.13.44,4.25,1.3,3.1,2.17,2.79,6.51-.62,14.87-3.1,7.44-3.72,13.32-1.55,13.94.43.12.92.18,1.47.18,6.7,0,22.49-8.48,42.5-22.78,2.34-1.67,4.24-2.96,5.81-3.9,4.04-3.56,8.64-5.72,12.81-5.72,1.28,0,2.52.2,3.68.63,5.88,2.17,8.37,12.7,3.1,12.7-2.47,0-3.4-1.24-4.33-4.96-.31-1.55-1.24-2.78-1.86-3.1-.1-.02-.21-.04-.33-.04-2.82,0-10.63,6.77-13.6,12.11-5.27,8.98-4.03,14.25,3.4,15.8,1.64.35,3.38.53,5.25.53,11.21,0,26.83-6.6,50.19-22.53l.31.62c2.53-1.73,4.71-3.16,6.56-4.26.28-.44.57-.88.88-1.32,2.47-3.72,4.33-5.58,6.19-5.58.93,0,1.55.31,2.17.94,1.27,1.01,1.29,1.61-.62,4.87v.08c0,.38-.4,1-1.13,1.81-.14.21-.27.44-.41.67-4.34,7.12-5.88,10.84-6.81,16.72-.62,3.4-.31,4.34.93,4.34,1.55,0,12.7-9.29,23.54-19.51,3.1-3.1,7.74-6.51,10.53-7.74,2.43-.97,3.67-1.44,4.7-1.44.94,0,1.71.38,3.04,1.12,3.72,2.17,4.34,4.96,2.79,12.7-.62,3.72-.93,6.81-.62,7.13.02.01.05.02.09.02.91,0,7.56-2.8,17.56-8.39,13.01-7.44,19.21-10.22,21.99-10.22,1.24,0,1.86.62,2.17,1.55h.62Zm-291.97,5.29c1.31-1.14,2.25-2.48,2.38-3.42.06-.41-.03-.73-.31-.94-1.2,0-2.5.37-3.76.94-1.99.89-3.9,2.26-5.22,3.4l.31-.93c-.4.34-.75.66-1.02.95-1.21,1.24-1.28,1.95-.52,2.46.77.38,1.22.61,1.77.61.78,0,1.75-.45,4.11-1.54.82-.41,1.59-.94,2.26-1.53Zm-73.81-.33c-.62-.62-1.86-1.86-2.79-2.79-.62-.94-.93-1.24-1.55-1.24s-1.55.31-3.72,1.24c-4.65,2.17-13.01,11.46-16.11,17.96-1.95,4.18-2.59,6.35-1.31,6.35,1.56,0,5.97-3.26,14.32-10.07l-.31-.31c8.36-6.81,12.08-10.53,11.46-11.15Zm-4.03,40.88c6.81-8.98,10.22-13.01,9.29-13.01s-5.26,3.1-13.31,8.37c-23.54,15.8-40.89,31.9-40.89,38.4,0,1.78.16,2.45,1.29,2.45.44,0,1.02-.1,1.81-.28,1.55-.31,4.96-1.55,7.44-2.79,10.53-5.57,24.15-18.27,34.69-32.51l-.31-.62Zm312.5-11.77c-2.78,0-36.85,24.15-44.91,32.21-5.58,5.57-8.37,10.84-7.12,13.63.31.92,1.55,1.24,3.1,1.24,10.84,0,28.49-14.87,34.69-22.61l-.62-.31c4.96-6.19,15.49-22.92,14.87-24.15Zm-123.92,30.17c1.21-.49,1.8-1.87,1.32-3.08-.49-1.21-1.87-1.8-3.08-1.31-32.26,12.95-58.55,12.31-74.93,9.5-17.76-3.05-28.03-9.25-28.13-9.32h0c-1.11-.68-2.57-.34-3.26.78-.69,1.11-.34,2.57.77,3.26.44.27,10.98,6.67,29.55,9.9,5.88,1.03,12.99,1.78,21.15,1.78,15.47,0,34.74-2.72,56.61-11.51Z"/>
</svg>