<svg
  xmlns="http://www.w3.org/2000/svg"
  width="392"
  height="226"
  viewBox="0 0 392 226"
>
  <mask id="path-1-inside-1_1882_2868">
    <path
      fill-rule="evenodd"
      clip-rule="evenodd"
      d="M20 0C8.9543 0 0 8.9543 0 20V206C0 217.046 8.9543 226 20 226H372C383.046 226 392 217.046 392 206V48.2843C392 42.9799 389.893 37.8929 386.142 34.1421L357.858 5.85786C354.107 2.10713 349.02 0 343.716 0H20Z"
    />
  </mask>
  <path
    fill-rule="evenodd"
    clip-rule="evenodd"
    d="M20 0C8.9543 0 0 8.9543 0 20V206C0 217.046 8.9543 226 20 226H372C383.046 226 392 217.046 392 206V48.2843C392 42.9799 389.893 37.8929 386.142 34.1421L357.858 5.85786C354.107 2.10713 349.02 0 343.716 0H20Z"
  />
  <path
    fill-rule="evenodd"
    clip-rule="evenodd"
    d="M20 0C8.9543 0 0 8.9543 0 20V206C0 217.046 8.9543 226 20 226H372C383.046 226 392 217.046 392 206V48.2843C392 42.9799 389.893 37.8929 386.142 34.1421L357.858 5.85786C354.107 2.10713 349.02 0 343.716 0H20Z"
  />
  <path
    d="M357.858 5.85786L357.151 6.56497L357.858 5.85786ZM386.142 34.1421L386.849 33.435L386.142 34.1421ZM1 20C1 9.50659 9.50659 1 20 1V-1C8.40202 -1 -1 8.40201 -1 20H1ZM1 206V20H-1V206H1ZM20 225C9.50658 225 1 216.493 1 206H-1C-1 217.598 8.40201 227 20 227V225ZM372 225H20V227H372V225ZM391 206C391 216.493 382.493 225 372 225V227C383.598 227 393 217.598 393 206H391ZM391 48.2843V206H393V48.2843H391ZM386.849 33.435L358.565 5.15075L357.151 6.56497L385.435 34.8492L386.849 33.435ZM20 1H343.716V-1H20V1ZM358.565 5.15075C354.627 1.21249 349.285 -1 343.716 -1V1C348.755 1 353.588 3.00177 357.151 6.56497L358.565 5.15075ZM393 48.2843C393 42.7147 390.788 37.3733 386.849 33.435L385.435 34.8492C388.998 38.4124 391 43.2452 391 48.2843H393Z"
    mask="url(#path-1-inside-1_1882_2868)"
  />
</svg>
