<svg width="146" height="190" viewBox="0 0 146 190" fill="none" xmlns="http://www.w3.org/2000/svg">
<mask id="path-1-inside-1_3033_5348" fill="white">
<path fill-rule="evenodd" clip-rule="evenodd" d="M10.1389 0C4.53934 0 0 4.53933 0 10.1389V179.861C0 185.461 4.53933 190 10.1389 190H135.861C141.461 190 146 185.461 146 179.861L146 24.4774C146 21.7884 144.932 19.2096 143.03 17.3082L128.692 2.96961C126.79 1.0682 124.212 0 121.523 0H10.1389Z"/>
</mask>
<path fill-rule="evenodd" clip-rule="evenodd" d="M10.1389 0C4.53934 0 0 4.53933 0 10.1389V179.861C0 185.461 4.53933 190 10.1389 190H135.861C141.461 190 146 185.461 146 179.861L146 24.4774C146 21.7884 144.932 19.2096 143.03 17.3082L128.692 2.96961C126.79 1.0682 124.212 0 121.523 0H10.1389Z" fill="#0C1D3A"/>
<path d="M146 179.861L146.507 179.861V179.861L146 179.861ZM128.692 2.96961L129.05 2.61115L128.692 2.96961ZM146 24.4774L145.493 24.4774L146 24.4774ZM143.03 17.3082L143.389 16.9497L143.03 17.3082ZM0.506944 10.1389C0.506944 4.81931 4.81931 0.506944 10.1389 0.506944V-0.506944C4.25936 -0.506944 -0.506944 4.25935 -0.506944 10.1389H0.506944ZM0.506944 179.861V10.1389H-0.506944V179.861H0.506944ZM10.1389 189.493C4.81931 189.493 0.506944 185.181 0.506944 179.861H-0.506944C-0.506944 185.741 4.25935 190.507 10.1389 190.507V189.493ZM135.861 189.493H10.1389V190.507H135.861V189.493ZM145.493 179.861C145.493 185.181 141.181 189.493 135.861 189.493V190.507C141.741 190.507 146.507 185.741 146.507 179.861H145.493ZM145.493 24.4774L145.493 179.861L146.507 179.861L146.507 24.4774L145.493 24.4774ZM143.389 16.9497L129.05 2.61115L128.333 3.32807L142.672 17.6666L143.389 16.9497ZM10.1389 0.506944H121.523V-0.506944H10.1389V0.506944ZM129.05 2.61115C127.054 0.614665 124.346 -0.506944 121.523 -0.506944V0.506944C124.077 0.506944 126.527 1.52173 128.333 3.32807L129.05 2.61115ZM146.507 24.4774C146.507 21.654 145.385 18.9462 143.389 16.9497L142.672 17.6666C144.478 19.473 145.493 21.9229 145.493 24.4774L146.507 24.4774Z" fill="url(#paint0_radial_3033_5348)" mask="url(#path-1-inside-1_3033_5348)"/>
<defs>
<radialGradient id="paint0_radial_3033_5348" cx="0" cy="0" r="1" gradientUnits="userSpaceOnUse" gradientTransform="translate(93.8931 -71.0435) rotate(98.8391) scale(202.316 75.8705)">
<stop stop-color="white"/>
<stop offset="1" stop-color="white" stop-opacity="0.1"/>
</radialGradient>
</defs>
</svg>
